<svg xmlns="http://www.w3.org/2000/svg" xmlns:xlink="http://www.w3.org/1999/xlink" width="196" height="196" version="1.1" viewBox="0 0 196 196"><title>VTK-js favicon-logo</title><desc>Created with Sketch.</desc><g id="Page-1" fill="none" fill-rule="evenodd" stroke="none" stroke-width="1"><g id="VTK-js-favicon"><path id="JS" fill="#8A8B8A" d="M67.769437,157.024129 C67.2117935,160.021463 66.4450451,163.123308 65.4691689,166.329759 C64.4932927,169.536209 63.0295004,172.446368 61.077748,175.060322 C59.1259956,177.674276 56.5469329,179.817686 53.3404826,181.490617 C50.1340322,183.163547 46.056325,184 41.1072386,184 C34.7640434,184 29.605918,182.449077 25.6327078,179.347185 C21.6594976,176.245293 19.1152871,172.045603 18,166.747989 L34.1018767,161.520107 C34.3806984,163.402154 35.1125946,165.005355 36.2975871,166.329759 C37.4825797,167.654162 39.0509286,168.316354 41.002681,168.316354 C44.0697204,168.316354 46.2654089,167.235936 47.5898123,165.075067 C48.9142157,162.914198 49.8552251,160.195727 50.4128686,156.919571 L58.9865952,107.986595 L76.5522788,107.986595 L67.769437,157.024129 Z M125.798928,125.970509 C124.404819,124.088462 122.662209,122.659522 120.571046,121.683646 C118.479882,120.70777 116.144785,120.219839 113.565684,120.219839 C112.380691,120.219839 111.126012,120.376674 109.801609,120.690349 C108.477205,121.004023 107.274804,121.526806 106.19437,122.258713 C105.113936,122.99062 104.207778,123.914204 103.475871,125.029491 C102.743964,126.144778 102.378016,127.504013 102.378016,129.107239 C102.378016,131.198402 103.197043,132.853881 104.835121,134.073727 C106.473199,135.293572 108.756018,136.426268 111.683646,137.47185 C114.890096,138.587137 117.747977,139.82439 120.257373,141.183646 C122.766769,142.542902 124.892753,144.093825 126.635389,145.836461 C128.378025,147.579097 129.702408,149.548246 130.608579,151.743968 C131.51475,153.939689 131.967828,156.431621 131.967828,159.219839 C131.967828,163.680987 131.044245,167.479877 129.197051,170.616622 C127.349857,173.753367 124.962481,176.315003 122.034853,178.301609 C119.107224,180.288214 115.831117,181.73458 112.206434,182.640751 C108.581751,183.546921 104.991975,184 101.436997,184 C98.7881905,184 96.1394234,183.756035 93.4906166,183.268097 C90.8418098,182.780158 88.2975993,182.065688 85.8579088,181.124665 C83.4182184,180.183641 81.1528255,178.981241 79.0616622,177.517426 C76.9704989,176.053612 75.1930368,174.380706 73.7292225,172.49866 L86.5898123,162.042895 C88.0536266,164.27347 90.2144629,166.085784 93.0723861,167.479893 C95.9303092,168.874002 98.8230417,169.571046 101.75067,169.571046 C103.28419,169.571046 104.765408,169.414211 106.19437,169.100536 C107.623332,168.786862 108.895437,168.264079 110.010724,167.532172 C111.126011,166.800264 112.014742,165.859255 112.676944,164.709115 C113.339145,163.558975 113.670241,162.182314 113.670241,160.579088 C113.670241,157.999987 112.624675,155.961133 110.533512,154.462466 C108.442349,152.963799 105.654173,151.62199 102.168901,150.436997 C99.7292103,149.600532 97.4463913,148.659523 95.3203753,147.613941 C93.1943593,146.568359 91.3471928,145.278828 89.7788204,143.745308 C88.2104479,142.211789 86.9557688,140.382048 86.0147453,138.256032 C85.0737218,136.130016 84.6032172,133.56838 84.6032172,130.571046 C84.6032172,126.806952 85.3873916,123.408862 86.9557641,120.376676 C88.5241365,117.344489 90.6675467,114.765426 93.386059,112.63941 C96.1045712,110.513394 99.2761213,108.875341 102.900804,107.725201 C106.525487,106.575061 110.394081,106 114.506702,106 C116.667571,106 118.86326,106.209113 121.093834,106.627346 C123.324408,107.045578 125.467818,107.655492 127.524129,108.457105 C129.580439,109.258717 131.479884,110.252005 133.22252,111.436997 C134.965156,112.62199 136.428948,113.981226 137.613941,115.514745 L125.798928,125.970509 Z"/><rect id="Rectangle-134" width="35" height="35" x="152.249" y="142.249" fill="#1C4678" rx="17.5" transform="translate(169.748737, 159.748737) rotate(-315.000000) translate(-169.748737, -159.748737)"/><g id="Group" transform="translate(3.000000, 11.000000)"><polygon id="Path-94" fill="#1C4678" points="4.775 0 25.258 86.069 47.788 86.069 82.027 14.661 60.842 14.661 39.909 59.03 25.258 0"/><polygon id="Path-95" fill="#1C4678" points="85.663 14.344 136.139 14.344 128.046 30.906 110.8 30.857 101.148 85.477 82.609 85.477 92.181 30.942 77.992 30.942"/><polygon id="Path-96" fill="#1C4678" points="138.366 14.344 154.438 14.41 150.024 39.397 152.412 39.397 169.268 14.344 190.243 14.344 167.801 47.747 181.004 101.81 160.064 101.81 149.412 57.38 147.116 57.38 141.991 85.515 120.967 85.515 130.73 30.472"/><polygon id="Path-99" fill="#8A8B8A" points="0 0 3.182 0 24.046 85.944 20.859 85.944"/><polygon id="Path-100" fill="#8A8B8A" points="55.102 14.344 57.89 14.344 40.747 50.155 39.792 46.289"/><polygon id="Path-101" fill="#8A8B8A" points="85.608 33.469 88.491 33.469 79.334 85.565 76.4 85.565"/><polygon id="Path-102" fill="#8A8B8A" points="123.785 33.469 126.709 33.469 117.523 85.515 114.6 85.515"/><polygon id="Path-103" fill="#8A8B8A" points="163.38 14.344 166.974 14.344 154.392 33.198 155.708 25.653"/><polygon id="Path-104" fill="#8A8B8A" points="147.902 63.75 156.819 101.363 153.508 101.363 146.433 72.29"/></g></g></g></svg>