<svg xmlns="http://www.w3.org/2000/svg" xmlns:xlink="http://www.w3.org/1999/xlink" width="196" height="196" version="1.1" viewBox="0 0 196 196"><title>VTK-js favicon-logo</title><desc>Created with Sketch.</desc><g id="Page-1" fill="none" fill-rule="evenodd" stroke="none" stroke-width="1"><g id="VTK-js-favicon"><path id="JS" fill="#A0A0A0" d="M90.2841823,152.24933 C89.8552257,154.554971 89.2654193,156.941006 88.5147453,159.407507 C87.7640713,161.874007 86.6380772,164.11259 85.1367292,166.123324 C83.6353812,168.134058 81.6514869,169.782835 79.1849866,171.069705 C76.7184863,172.356575 73.5817885,173 69.7747989,173 C64.895418,173 60.9276292,171.806982 57.8713137,169.420912 C54.8149981,167.034841 52.8579131,163.80431 52,159.729223 L64.386059,155.707775 C64.6005373,157.155503 65.1635343,158.388735 66.075067,159.407507 C66.9865997,160.426279 68.193022,160.935657 69.69437,160.935657 C72.0536311,160.935657 73.7426223,160.104566 74.7613941,158.442359 C75.780166,156.780153 76.5040193,154.689021 76.9329759,152.168901 L83.5281501,114.52815 L97.0402145,114.52815 L90.2841823,152.24933 Z M134.922252,128.36193 C133.849861,126.914202 132.509391,125.815017 130.900804,125.064343 C129.292217,124.313669 127.495988,123.938338 125.512064,123.938338 C124.600532,123.938338 123.635394,124.05898 122.616622,124.300268 C121.59785,124.541556 120.672926,124.943697 119.841823,125.506702 C119.01072,126.069708 118.313676,126.780157 117.75067,127.63807 C117.187665,128.495983 116.906166,129.541549 116.906166,130.774799 C116.906166,132.383386 117.536187,133.656832 118.796247,134.595174 C120.056307,135.533517 121.812321,136.404822 124.064343,137.209115 C126.530843,138.067028 128.729213,139.018762 130.659517,140.064343 C132.589822,141.109925 134.225194,142.302942 135.565684,143.643432 C136.906173,144.983921 137.924929,146.498651 138.621984,148.187668 C139.319038,149.876684 139.66756,151.793555 139.66756,153.938338 C139.66756,157.36999 138.957112,160.292213 137.536193,162.705094 C136.115274,165.117975 134.278832,167.088464 132.02681,168.616622 C129.774788,170.14478 127.254706,171.257369 124.466488,171.954424 C121.67827,172.651478 118.916904,173 116.182306,173 C114.144762,173 112.107249,172.812334 110.069705,172.436997 C108.032161,172.06166 106.075076,171.512068 104.198391,170.788204 C102.321706,170.06434 100.579097,169.139416 98.9705094,168.013405 C97.3619223,166.887394 95.9946437,165.600543 94.8686327,164.152815 L104.761394,156.10992 C105.887405,157.825746 107.549587,159.219834 109.747989,160.292225 C111.946392,161.364617 114.171571,161.900804 116.423592,161.900804 C117.603223,161.900804 118.742622,161.780162 119.841823,161.538874 C120.941024,161.297586 121.919567,160.895445 122.77748,160.33244 C123.635393,159.769434 124.319032,159.045581 124.828418,158.160858 C125.337804,157.276135 125.592493,156.217164 125.592493,154.983914 C125.592493,152.99999 124.788212,151.431641 123.179625,150.27882 C121.571038,149.126 119.426287,148.093838 116.745308,147.182306 C114.868623,146.538871 113.112609,145.815017 111.477212,145.010724 C109.841815,144.20643 108.420918,143.214483 107.214477,142.034853 C106.008037,140.855222 105.042899,139.447729 104.319035,137.812332 C103.595171,136.176936 103.233244,134.206446 103.233244,131.900804 C103.233244,129.005347 103.836455,126.391433 105.042895,124.058981 C106.249336,121.72653 107.898113,119.742636 109.989276,118.107239 C112.080439,116.471842 114.520093,115.211801 117.308311,114.327078 C120.096529,113.442355 123.07237,113 126.235925,113 C127.898132,113 129.587123,113.160856 131.302949,113.482574 C133.018775,113.804291 134.667552,114.273455 136.24933,114.89008 C137.831107,115.506705 139.292218,116.270773 140.632708,117.182306 C141.973197,118.093838 143.099191,119.139404 144.010724,120.319035 L134.922252,128.36193 Z"/><g id="Group" transform="translate(3.000000, 11.000000)"><polygon id="Path-94" fill="#4990E2" points="4.775 0 25.258 86.069 47.788 86.069 82.027 14.661 60.842 14.661 39.909 59.03 25.258 0"/><polygon id="Path-95" fill="#4990E2" points="85.663 14.344 136.139 14.344 128.046 30.906 110.8 30.857 101.148 85.477 82.609 85.477 92.181 30.942 77.992 30.942"/><polygon id="Path-96" fill="#4990E2" points="138.366 14.344 154.438 14.41 150.024 39.397 152.412 39.397 169.268 14.344 190.243 14.344 167.801 47.747 181.004 101.81 160.064 101.81 149.412 57.38 147.116 57.38 141.991 85.515 120.967 85.515 130.73 30.472"/><polygon id="Path-99" fill="#FFF" points="0 0 3.182 0 24.046 85.944 20.859 85.944"/><polygon id="Path-100" fill="#FFF" points="55.102 14.344 57.89 14.344 40.747 50.155 39.792 46.289"/><polygon id="Path-101" fill="#FFF" points="85.608 33.469 88.491 33.469 79.334 85.565 76.4 85.565"/><polygon id="Path-102" fill="#FFF" points="123.785 33.469 126.709 33.469 117.523 85.515 114.6 85.515"/><polygon id="Path-103" fill="#FFF" points="163.38 14.344 166.974 14.344 154.392 33.198 155.708 25.653"/><polygon id="Path-104" fill="#FFF" points="147.902 63.75 156.819 101.363 153.508 101.363 146.433 72.29"/></g><circle id="Oval-47" cx="27" cy="163" r="10" fill="#A0A0A0"/></g></g></svg>